<svg width="56" height="56" viewBox="0 0 56 56" fill="none" xmlns="http://www.w3.org/2000/svg">
<path d="M52.6667 7V40.3333C52.6667 42.8087 51.7351 45.1827 50.0769 46.933C48.4187 48.6833 46.1697 49.6667 43.8246 49.6667C41.4795 49.6667 39.2305 48.6833 37.5723 46.933C35.9141 45.1827 34.9825 42.8087 34.9825 40.3333C34.9825 37.858 35.9141 35.484 37.5723 33.7337C39.2305 31.9833 41.4795 31 43.8246 31C45.1888 31 46.4772 31.32 47.6141 31.9067V16.2533L22.3509 21.9333V45.6667C22.3509 48.142 21.4193 50.516 19.7611 52.2663C18.1029 54.0167 15.8539 55 13.5088 55C11.1637 55 8.9147 54.0167 7.25648 52.2663C5.59826 50.516 4.66669 48.142 4.66669 45.6667C4.66669 43.1913 5.59826 40.8173 7.25648 39.067C8.9147 37.3167 11.1637 36.3333 13.5088 36.3333C14.873 36.3333 16.1614 36.6533 17.2983 37.24V15L52.6667 7Z" fill="white"/>
</svg>
