<svg width="49" height="49" viewBox="0 0 49 49" fill="none" xmlns="http://www.w3.org/2000/svg">
<path d="M35.94 22.3C29.54 18.5 18.84 18.1 12.74 20C11.74 20.3 10.74 19.7 10.44 18.8C10.14 17.8 10.74 16.8 11.64 16.5C18.74 14.4 30.44 14.8 37.84 19.2C38.74 19.7 39.04 20.9 38.54 21.8C38.04 22.5 36.84 22.8 35.94 22.3ZM35.74 27.9C35.24 28.6 34.34 28.9 33.64 28.4C28.24 25.1 20.04 24.1 13.74 26.1C12.94 26.3 12.04 25.9 11.84 25.1C11.64 24.3 12.04 23.4 12.84 23.2C20.14 21 29.14 22.1 35.34 25.9C35.94 26.2 36.24 27.2 35.74 27.9ZM33.34 33.4C32.94 34 32.24 34.2 31.64 33.8C26.94 30.9 21.04 30.3 14.04 31.9C13.34 32.1 12.74 31.6 12.54 31C12.34 30.3 12.84 29.7 13.44 29.5C21.04 27.8 27.64 28.5 32.84 31.7C33.54 32 33.64 32.8 33.34 33.4ZM24.14 4.5C21.5136 4.5 18.9129 5.01732 16.4863 6.02241C14.0598 7.0275 11.8551 8.50069 9.99788 10.3579C6.24715 14.1086 4.14001 19.1957 4.14001 24.5C4.14001 29.8043 6.24715 34.8914 9.99788 38.6421C11.8551 40.4993 14.0598 41.9725 16.4863 42.9776C18.9129 43.9827 21.5136 44.5 24.14 44.5C29.4443 44.5 34.5314 42.3929 38.2822 38.6421C42.0329 34.8914 44.14 29.8043 44.14 24.5C44.14 21.8736 43.6227 19.2728 42.6176 16.8463C41.6125 14.4198 40.1393 12.215 38.2822 10.3579C36.425 8.50069 34.2202 7.0275 31.7937 6.02241C29.3672 5.01732 26.7665 4.5 24.14 4.5Z" fill="#1ED760"/>
</svg>
