<svg width="70" height="49" viewBox="0 0 70 49" fill="none" xmlns="http://www.w3.org/2000/svg">
<g clip-path="url(#clip0_64_344)">
<path d="M67.6256 7.98667C67.2341 6.53962 66.4703 5.22039 65.4103 4.16034C64.3503 3.1003 63.0311 2.33643 61.584 1.9448C56.2864 0.5 34.9654 0.5 34.9654 0.5C34.9654 0.5 13.6432 0.543733 8.34564 1.98853C6.89857 2.38019 5.57935 3.1441 4.51936 4.20419C3.45936 5.26428 2.69556 6.58357 2.30404 8.03067C0.701638 17.4435 0.0800378 31.7864 2.34804 40.8227C2.7396 42.2697 3.50341 43.589 4.56341 44.649C5.62341 45.709 6.9426 46.4729 8.38964 46.8645C13.6872 48.3093 35.0088 48.3093 35.0088 48.3093C35.0088 48.3093 56.3302 48.3093 61.6275 46.8645C63.0746 46.4729 64.3939 45.7091 65.4539 44.6491C66.5139 43.589 67.2778 42.2698 67.6694 40.8227C69.3595 31.3965 69.8803 17.0624 67.6256 7.98667Z" fill="#FF0000"/>
<path d="M28.1789 34.6493L45.8664 24.4045L28.1789 14.1597V34.6493Z" fill="white"/>
</g>
<defs>
<clipPath id="clip0_64_344">
<rect width="68.28" height="48" fill="white" transform="translate(0.859985 0.5)"/>
</clipPath>
</defs>
</svg>
