<svg width="49" height="49" viewBox="0 0 49 49" fill="none" xmlns="http://www.w3.org/2000/svg">
<g clip-path="url(#clip0_64_357)">
<path d="M48.128 12.748C48.144 11.274 47.9829 9.8035 47.648 8.368C47.014 5.748 45.524 3.748 43.288 2.282C42.148 1.54857 40.8708 1.05456 39.534 0.829998C38.5003 0.652019 37.4547 0.551738 36.406 0.529998C36.326 0.523998 36.24 0.509998 36.158 0.503998H12.112C11.8093 0.522664 11.506 0.539998 11.202 0.555998C9.70802 0.641998 8.22201 0.801998 6.81601 1.356C4.14401 2.416 2.21601 4.26 1.08601 6.916C0.702015 7.812 0.502015 8.766 0.360015 9.732C0.25102 10.5145 0.184257 11.3023 0.160015 12.092C0.160015 12.156 0.146015 12.216 0.140015 12.278V36.724L0.194015 37.572C0.294015 39.202 0.502015 40.82 1.18801 42.318C2.48801 45.158 4.66401 47.024 7.65601 47.92C8.49601 48.174 9.36802 48.294 10.242 48.376C11.352 48.482 12.462 48.496 13.576 48.496H35.636C36.6858 48.4928 37.7343 48.426 38.776 48.296C40.42 48.084 41.968 47.596 43.366 46.676C45.0238 45.6038 46.331 44.0692 47.126 42.262C47.498 41.422 47.712 40.522 47.866 39.614C48.092 38.264 48.142 36.898 48.14 35.534C48.136 27.934 48.14 20.344 48.134 12.748H48.128ZM35.282 20.728V32.152C35.282 32.986 35.166 33.806 34.794 34.564C34.214 35.744 33.274 36.488 32.018 36.844C31.3193 37.044 30.606 37.1593 29.878 37.19C27.978 37.28 26.332 35.99 25.992 34.118C25.8492 33.3097 25.9749 32.4769 26.3497 31.7468C26.7245 31.0166 27.328 30.4291 28.068 30.074C28.714 29.754 29.408 29.574 30.104 29.426C30.86 29.262 31.62 29.12 32.372 28.946C32.92 28.82 33.286 28.486 33.392 27.914C33.4178 27.7869 33.4312 27.6577 33.432 27.528C33.432 23.8973 33.4307 20.2687 33.428 16.642C33.4273 16.5169 33.4098 16.3925 33.376 16.272C33.296 15.972 33.076 15.786 32.768 15.804C32.448 15.824 32.132 15.874 31.818 15.936C30.298 16.2373 28.778 16.5413 27.258 16.848L22.608 17.788L19.86 18.344L19.764 18.37C19.21 18.524 19.01 18.776 18.984 19.35C18.9813 19.434 18.9813 19.5207 18.984 19.61C18.98 24.814 18.984 30.018 18.978 35.22C18.978 36.06 18.884 36.892 18.548 37.674C17.992 38.954 17.008 39.754 15.68 40.14C14.9787 40.3427 14.262 40.4573 13.53 40.484C11.61 40.556 10.02 39.284 9.69001 37.396C9.41002 35.772 10.15 34.026 11.998 33.246C12.712 32.946 13.458 32.782 14.214 32.626C14.788 32.506 15.364 32.394 15.934 32.272C16.6993 32.104 17.0993 31.628 17.134 30.844V30.544L17.138 12.78C17.138 12.534 17.164 12.28 17.222 12.04C17.362 11.47 17.768 11.144 18.314 11.004C18.824 10.872 19.344 10.78 19.862 10.674C21.3287 10.3753 22.7953 10.0793 24.262 9.786L28.802 8.866L32.822 8.06C33.262 7.974 33.706 7.884 34.148 7.848C34.768 7.798 35.194 8.188 35.256 8.812C35.272 8.95866 35.28 9.10733 35.28 9.258C35.284 13.0793 35.284 16.9007 35.28 20.722L35.282 20.728Z" fill="white"/>
</g>
<defs>
<clipPath id="clip0_64_357">
<rect width="48" height="48" fill="white" transform="translate(0.140015 0.5)"/>
</clipPath>
</defs>
</svg>
