<svg width="17" height="16" viewBox="0 0 17 16" fill="none" xmlns="http://www.w3.org/2000/svg">
<path d="M5.36662 1.33325H10.9666C13.1 1.33325 14.8333 3.06659 14.8333 5.19992V10.7999C14.8333 11.8254 14.4259 12.8089 13.7008 13.5341C12.9756 14.2592 11.9921 14.6666 10.9666 14.6666H5.36662C3.23329 14.6666 1.49995 12.9333 1.49995 10.7999V5.19992C1.49995 4.17441 1.90733 3.19091 2.63247 2.46577C3.35762 1.74063 4.34112 1.33325 5.36662 1.33325ZM5.23329 2.66659C4.59677 2.66659 3.98632 2.91944 3.53623 3.36953C3.08614 3.81962 2.83329 4.43007 2.83329 5.06659V10.9333C2.83329 12.2599 3.90662 13.3333 5.23329 13.3333H11.1C11.7365 13.3333 12.3469 13.0804 12.797 12.6303C13.2471 12.1802 13.5 11.5698 13.5 10.9333V5.06659C13.5 3.73992 12.4266 2.66659 11.1 2.66659H5.23329ZM11.6666 3.66659C11.8876 3.66659 12.0996 3.75438 12.2559 3.91066C12.4122 4.06694 12.5 4.2789 12.5 4.49992C12.5 4.72093 12.4122 4.93289 12.2559 5.08917C12.0996 5.24545 11.8876 5.33325 11.6666 5.33325C11.4456 5.33325 11.2336 5.24545 11.0774 5.08917C10.9211 4.93289 10.8333 4.72093 10.8333 4.49992C10.8333 4.2789 10.9211 4.06694 11.0774 3.91066C11.2336 3.75438 11.4456 3.66659 11.6666 3.66659ZM8.16662 4.66659C9.05068 4.66659 9.89852 5.01777 10.5236 5.6429C11.1488 6.26802 11.5 7.11586 11.5 7.99992C11.5 8.88397 11.1488 9.73182 10.5236 10.3569C9.89852 10.9821 9.05068 11.3333 8.16662 11.3333C7.28257 11.3333 6.43472 10.9821 5.8096 10.3569C5.18448 9.73182 4.83329 8.88397 4.83329 7.99992C4.83329 7.11586 5.18448 6.26802 5.8096 5.6429C6.43472 5.01777 7.28257 4.66659 8.16662 4.66659ZM8.16662 5.99992C7.63619 5.99992 7.12748 6.21063 6.75241 6.5857C6.37733 6.96078 6.16662 7.46949 6.16662 7.99992C6.16662 8.53035 6.37733 9.03906 6.75241 9.41413C7.12748 9.78921 7.63619 9.99992 8.16662 9.99992C8.69705 9.99992 9.20576 9.78921 9.58084 9.41413C9.95591 9.03906 10.1666 8.53035 10.1666 7.99992C10.1666 7.46949 9.95591 6.96078 9.58084 6.5857C9.20576 6.21063 8.69705 5.99992 8.16662 5.99992Z" fill="white"/>
</svg>
