<svg width="49" height="48" viewBox="0 0 49 48" fill="none" xmlns="http://www.w3.org/2000/svg">
<g clip-path="url(#clip0_52_277)">
<path d="M16.4257 37.7144C16.8303 37.728 17.2334 37.6601 17.6112 37.5147C17.9889 37.3693 18.3336 37.1494 18.6246 36.8681C18.9156 36.5867 19.147 36.2497 19.3051 35.877C19.4631 35.5044 19.5445 35.1037 19.5445 34.699C19.5445 34.2942 19.4631 33.8936 19.3051 33.5209C19.147 33.1483 18.9156 32.8112 18.6246 32.5299C18.3336 32.2485 17.9889 32.0286 17.6112 31.8832C17.2334 31.7378 16.8303 31.6699 16.4257 31.6835C15.6255 31.6835 14.8581 32.0014 14.2923 32.5672C13.7264 33.1331 13.4086 33.9005 13.4086 34.7007C13.4086 35.5009 13.7264 36.2683 14.2923 36.8341C14.8581 37.3999 15.6255 37.7178 16.4257 37.7178V37.7144ZM29.9926 33.9464C30.7928 33.9464 31.5602 33.6285 32.126 33.0627C32.6918 32.4969 33.0097 31.7294 33.0097 30.9293C33.0097 30.1291 32.6918 29.3616 32.126 28.7958C31.5602 28.23 30.7928 27.9121 29.9926 27.9121C29.1924 27.9121 28.4249 28.23 27.8591 28.7958C27.2933 29.3616 26.9754 30.1291 26.9754 30.9293C26.9754 31.7294 27.2933 32.4969 27.8591 33.0627C28.4249 33.6285 29.1924 33.9464 29.9926 33.9464Z" stroke="white" stroke-width="3.42857" stroke-linecap="round" stroke-linejoin="round"/>
<path d="M19.4429 34.6972V21.7338L33.0097 18.5383V30.936" stroke="white" stroke-width="3.42857" stroke-linecap="round" stroke-linejoin="round"/>
<path d="M2.21429 42.0001V6.00009C2.21429 5.09078 2.57551 4.21871 3.21849 3.57573C3.86147 2.93275 4.73354 2.57152 5.64286 2.57152H18.2943C19.0775 2.54871 19.8449 2.79484 20.4687 3.26894C21.0925 3.74305 21.5351 4.41652 21.7229 5.17724L22.7857 9.42867H43.3571C44.2665 9.42867 45.1385 9.78989 45.7815 10.4329C46.4245 11.0759 46.7857 11.9479 46.7857 12.8572V42.0001C46.7857 42.9094 46.4245 43.7815 45.7815 44.4245C45.1385 45.0674 44.2665 45.4287 43.3571 45.4287H5.64286C4.73354 45.4287 3.86147 45.0674 3.21849 44.4245C2.57551 43.7815 2.21429 42.9094 2.21429 42.0001Z" stroke="white" stroke-width="3.42857" stroke-linecap="round" stroke-linejoin="round"/>
</g>
<defs>
<clipPath id="clip0_52_277">
<rect width="48" height="48" fill="white" transform="translate(0.5)"/>
</clipPath>
</defs>
</svg>
