<svg width="48" height="48" viewBox="0 0 48 48" fill="none" xmlns="http://www.w3.org/2000/svg">
<path d="M21.784 7.71598C26.848 6.78998 32.68 8.83798 35.026 14.596C36.056 17.126 36.224 19.278 35.742 21.202C35.266 23.092 34.202 24.59 33.096 25.872C32.61 26.436 32.09 26.984 31.596 27.508L31.396 27.716C30.8505 28.2829 30.3249 28.8686 29.82 29.472C28.86 30.646 28.146 31.83 27.85 33.232C26.936 37.542 23.93 40.5 19.94 40.5C19.0093 40.5155 18.0886 40.3068 17.2556 39.8915C16.4226 39.4762 15.7018 38.8665 15.154 38.114C14.098 36.694 13.61 34.834 13.61 32.918C13.61 32.5202 13.768 32.1386 14.0493 31.8573C14.3306 31.576 14.7122 31.418 15.11 31.418C15.5078 31.418 15.8894 31.576 16.1707 31.8573C16.452 32.1386 16.61 32.5202 16.61 32.918C16.61 34.364 16.982 35.544 17.562 36.324C18.11 37.06 18.878 37.5 19.942 37.5C22.172 37.5 24.218 35.898 24.914 32.608C25.35 30.558 26.378 28.942 27.498 27.572C28.058 26.892 28.652 26.252 29.218 25.656L29.418 25.444C29.918 24.916 30.388 24.42 30.826 23.912C31.816 22.766 32.526 21.692 32.832 20.472C33.13 19.284 33.088 17.788 32.248 15.73C30.554 11.57 26.318 9.93598 22.324 10.666C18.364 11.39 15 14.376 15 19.236C15 19.6338 14.842 20.0153 14.5607 20.2966C14.2794 20.5779 13.8978 20.736 13.5 20.736C13.1022 20.736 12.7206 20.5779 12.4393 20.2966C12.158 20.0153 12 19.6338 12 19.236C12 12.658 16.684 8.64798 21.784 7.71598Z" fill="white"/>
<path d="M24.252 16.446C22.986 16.326 21.57 17.026 21.132 19.07C21.098 19.236 21.112 19.466 21.548 20.002C21.722 20.218 21.914 20.422 22.144 20.668L22.322 20.858C22.604 21.162 22.952 21.544 23.232 21.968C24.402 23.744 24.384 26.308 22.58 27.892C21.774 28.598 20.496 29.5 19 29.5C18.6022 29.5 18.2206 29.342 17.9393 29.0607C17.658 28.7794 17.5 28.3979 17.5 28C17.5 27.6022 17.658 27.2207 17.9393 26.9394C18.2206 26.6581 18.6022 26.5 19 26.5C19.346 26.5 19.91 26.242 20.602 25.636C21.082 25.216 21.228 24.38 20.726 23.62C20.5451 23.3648 20.3445 23.124 20.126 22.9C19.8092 22.5764 19.5062 22.2394 19.218 21.89C18.608 21.138 17.874 19.97 18.198 18.446C18.952 14.906 21.758 13.196 24.536 13.458C27.276 13.718 29.782 15.878 30.086 19.398C30.1084 19.5971 30.0907 19.7986 30.0339 19.9908C29.9771 20.1829 29.8824 20.3617 29.7554 20.5166C29.6284 20.6715 29.4717 20.7994 29.2944 20.8928C29.1172 20.9862 28.923 21.0431 28.7234 21.0602C28.5238 21.0773 28.3228 21.0542 28.1323 20.9924C27.9418 20.9305 27.7655 20.8311 27.614 20.7001C27.4625 20.569 27.3388 20.4089 27.2502 20.2293C27.1615 20.0496 27.1098 19.854 27.098 19.654C26.918 17.588 25.558 16.57 24.252 16.446Z" fill="white"/>
</svg>
