<svg width="48" height="48" viewBox="0 0 48 48" fill="none" xmlns="http://www.w3.org/2000/svg">
<path d="M14 18V14H42V18H14ZM14 26V22H42V26H14ZM14 34V30H42V34H14ZM8 18C7.43333 18 6.95867 17.808 6.576 17.424C6.19333 17.04 6.00133 16.5653 6 16C5.99867 15.4347 6.19067 14.96 6.576 14.576C6.96133 14.192 7.436 14 8 14C8.564 14 9.03933 14.192 9.426 14.576C9.81267 14.96 10.004 15.4347 10 16C9.996 16.5653 9.804 17.0407 9.424 17.426C9.044 17.8113 8.56933 18.0027 8 18ZM8 26C7.43333 26 6.95867 25.808 6.576 25.424C6.19333 25.04 6.00133 24.5653 6 24C5.99867 23.4347 6.19067 22.96 6.576 22.576C6.96133 22.192 7.436 22 8 22C8.564 22 9.03933 22.192 9.426 22.576C9.81267 22.96 10.004 23.4347 10 24C9.996 24.5653 9.804 25.0407 9.424 25.426C9.044 25.8113 8.56933 26.0027 8 26ZM8 34C7.43333 34 6.95867 33.808 6.576 33.424C6.19333 33.04 6.00133 32.5653 6 32C5.99867 31.4347 6.19067 30.96 6.576 30.576C6.96133 30.192 7.436 30 8 30C8.564 30 9.03933 30.192 9.426 30.576C9.81267 30.96 10.004 31.4347 10 32C9.996 32.5653 9.804 33.0407 9.424 33.426C9.044 33.8113 8.56933 34.0027 8 34Z" fill="white"/>
</svg>
