<svg width="17" height="16" viewBox="0 0 17 16" fill="none" xmlns="http://www.w3.org/2000/svg">
<path d="M11.2333 3.88C10.7777 3.35968 10.5266 2.6916 10.5266 2H8.46662V10.2667C8.45107 10.7141 8.2623 11.1381 7.94016 11.449C7.61802 11.7599 7.18769 11.9336 6.73996 11.9333C5.79329 11.9333 5.00662 11.16 5.00662 10.2C5.00662 9.05333 6.11329 8.19333 7.25329 8.54667V6.44C4.95329 6.13333 2.93996 7.92 2.93996 10.2C2.93996 12.42 4.77996 14 6.73329 14C8.82662 14 10.5266 12.3 10.5266 10.2V6.00667C11.362 6.60657 12.3649 6.92843 13.3933 6.92667V4.86667C13.3933 4.86667 12.14 4.92667 11.2333 3.88Z" fill="white"/>
</svg>
