<svg width="17" height="16" viewBox="0 0 17 16" fill="none" xmlns="http://www.w3.org/2000/svg">
<path d="M6.83329 9.99992L10.2933 7.99992L6.83329 5.99992V9.99992ZM14.54 4.77992C14.6266 5.09325 14.6866 5.51325 14.7266 6.04659C14.7733 6.57992 14.7933 7.03992 14.7933 7.43992L14.8333 7.99992C14.8333 9.45992 14.7266 10.5333 14.54 11.2199C14.3733 11.8199 13.9866 12.2066 13.3866 12.3733C13.0733 12.4599 12.5 12.5199 11.62 12.5599C10.7533 12.6066 9.95995 12.6266 9.22662 12.6266L8.16662 12.6666C5.37329 12.6666 3.63329 12.5599 2.94662 12.3733C2.34662 12.2066 1.95995 11.8199 1.79329 11.2199C1.70662 10.9066 1.64662 10.4866 1.60662 9.95325C1.55995 9.41992 1.53995 8.95992 1.53995 8.55992L1.49995 7.99992C1.49995 6.53992 1.60662 5.46659 1.79329 4.77992C1.95995 4.17992 2.34662 3.79325 2.94662 3.62659C3.25995 3.53992 3.83329 3.47992 4.71329 3.43992C5.57995 3.39325 6.37329 3.37325 7.10662 3.37325L8.16662 3.33325C10.96 3.33325 12.7 3.43992 13.3866 3.62659C13.9866 3.79325 14.3733 4.17992 14.54 4.77992Z" fill="white"/>
</svg>
