<svg width="16" height="17" viewBox="0 0 16 17" fill="none" xmlns="http://www.w3.org/2000/svg">
<path d="M2.66665 13.8334C2.29998 13.8334 1.9862 13.703 1.72531 13.4421C1.46442 13.1812 1.33376 12.8672 1.33331 12.5001V4.50008C1.33331 4.13341 1.46398 3.81964 1.72531 3.55875C1.98665 3.29786 2.30042 3.16719 2.66665 3.16675H13.3333C13.7 3.16675 14.014 3.29741 14.2753 3.55875C14.5366 3.82008 14.6671 4.13386 14.6666 4.50008V12.5001C14.6666 12.8667 14.5362 13.1807 14.2753 13.4421C14.0144 13.7034 13.7004 13.8339 13.3333 13.8334H2.66665ZM7.99998 9.16675L13.3333 5.83341V4.50008L7.99998 7.83342L2.66665 4.50008V5.83341L7.99998 9.16675Z" fill="white"/>
</svg>
