<svg width="17" height="16" viewBox="0 0 17 16" fill="none" xmlns="http://www.w3.org/2000/svg">
<path d="M12.1 7.26659C9.96662 5.99992 6.39995 5.86659 4.36662 6.49992C4.03329 6.59992 3.69995 6.39992 3.59995 6.09992C3.49995 5.76659 3.69995 5.43325 3.99995 5.33325C6.36662 4.63325 10.2666 4.76659 12.7333 6.23325C13.0333 6.39992 13.1333 6.79992 12.9666 7.09992C12.8 7.33325 12.4 7.43325 12.1 7.26659ZM12.0333 9.13325C11.8666 9.36659 11.5666 9.46659 11.3333 9.29992C9.53329 8.19992 6.79995 7.86659 4.69995 8.53325C4.43329 8.59992 4.13329 8.46659 4.06662 8.19992C3.99995 7.93325 4.13329 7.63325 4.39995 7.56659C6.83329 6.83325 9.83329 7.19992 11.9 8.46659C12.1 8.56659 12.2 8.89992 12.0333 9.13325ZM11.2333 10.9666C11.1 11.1666 10.8666 11.2333 10.6666 11.0999C9.09995 10.1333 7.13329 9.93325 4.79995 10.4666C4.56662 10.5333 4.36662 10.3666 4.29995 10.1666C4.23329 9.93325 4.39995 9.73325 4.59995 9.66659C7.13329 9.09992 9.33329 9.33325 11.0666 10.3999C11.3 10.4999 11.3333 10.7666 11.2333 10.9666ZM8.16662 1.33325C7.29114 1.33325 6.42424 1.50569 5.6154 1.84072C4.80656 2.17575 4.07163 2.66682 3.45258 3.28587C2.20233 4.53612 1.49995 6.23181 1.49995 7.99992C1.49995 9.76803 2.20233 11.4637 3.45258 12.714C4.07163 13.333 4.80656 13.8241 5.6154 14.1591C6.42424 14.4941 7.29114 14.6666 8.16662 14.6666C9.93473 14.6666 11.6304 13.9642 12.8807 12.714C14.1309 11.4637 14.8333 9.76803 14.8333 7.99992C14.8333 7.12444 14.6609 6.25753 14.3258 5.4487C13.9908 4.63986 13.4997 3.90493 12.8807 3.28587C12.2616 2.66682 11.5267 2.17575 10.7178 1.84072C9.90901 1.50569 9.0421 1.33325 8.16662 1.33325Z" fill="white"/>
</svg>
