<svg width="48" height="48" viewBox="0 0 48 48" fill="none" xmlns="http://www.w3.org/2000/svg">
<g clip-path="url(#clip0_54_176)">
<path fill-rule="evenodd" clip-rule="evenodd" d="M25.414 31.414C25.0389 31.7889 24.5303 31.9995 24 31.9995C23.4697 31.9995 22.9611 31.7889 22.586 31.414L11.272 20.1C11.081 19.9155 10.9286 19.6948 10.8238 19.4508C10.719 19.2068 10.6638 18.9443 10.6615 18.6788C10.6592 18.4132 10.7098 18.1498 10.8104 17.904C10.9109 17.6583 11.0594 17.4349 11.2472 17.2472C11.435 17.0594 11.6583 16.9109 11.9041 16.8103C12.1499 16.7097 12.4132 16.6591 12.6788 16.6615C12.9444 16.6638 13.2068 16.7189 13.4508 16.8238C13.6948 16.9286 13.9155 17.0809 14.1 17.272L24 27.172L33.9 17.272C34.2772 16.9076 34.7824 16.706 35.3068 16.7106C35.8312 16.7152 36.3328 16.9255 36.7036 17.2963C37.0745 17.6671 37.2848 18.1688 37.2893 18.6932C37.2939 19.2175 37.0923 19.7227 36.728 20.1L25.414 31.414Z" fill="white"/>
</g>
<defs>
<clipPath id="clip0_54_176">
<rect width="48" height="48" fill="white"/>
</clipPath>
</defs>
</svg>
