<svg width="32" height="32" viewBox="0 0 32 32" fill="none" xmlns="http://www.w3.org/2000/svg">
<path fill-rule="evenodd" clip-rule="evenodd" d="M7.55864 6.34668C7.59465 6.04393 7.70079 5.75376 7.86862 5.49923C8.03645 5.2447 8.26134 5.03283 8.52542 4.88047C8.7895 4.72811 9.08548 4.63945 9.38983 4.62155C9.69419 4.60364 9.99852 4.65699 10.2786 4.77734C11.6946 5.38268 14.868 6.82134 18.8946 9.14534C22.9226 11.4707 25.756 13.5013 26.9866 14.4227C28.0373 15.2107 28.04 16.7733 26.988 17.564C25.7693 18.48 22.9706 20.484 18.8946 22.8387C14.8146 25.1933 11.6786 26.6147 10.276 27.212C9.06797 27.728 7.71597 26.9453 7.55864 25.6427C7.37464 24.12 7.03064 20.6627 7.03064 15.9933C7.03064 11.3267 7.37331 7.87068 7.55864 6.34668Z" fill="#FCF7F7"/>
</svg>
