<svg width="32" height="32" viewBox="0 0 32 32" fill="none" xmlns="http://www.w3.org/2000/svg">
<path d="M26.6667 2.66663H5.33335C3.86669 2.66663 2.66669 3.86663 2.66669 5.33329V26.12C2.66669 27.3066 4.10669 27.9066 4.94669 27.0666L8.00002 24H26.6667C28.1334 24 29.3334 22.8 29.3334 21.3333V5.33329C29.3334 3.86663 28.1334 2.66663 26.6667 2.66663ZM18.0934 15.4266L16.6 18.68C16.547 18.7964 16.4616 18.895 16.354 18.9642C16.2465 19.0334 16.1213 19.0702 15.9934 19.0702C15.8654 19.0702 15.7402 19.0334 15.6327 18.9642C15.5251 18.895 15.4397 18.7964 15.3867 18.68L13.8934 15.4266L10.64 13.9333C10.5236 13.8803 10.4249 13.7949 10.3557 13.6873C10.2866 13.5797 10.2498 13.4545 10.2498 13.3266C10.2498 13.1987 10.2866 13.0735 10.3557 12.966C10.4249 12.8584 10.5236 12.773 10.64 12.72L13.8934 11.2266L15.3867 7.97329C15.4397 7.8569 15.5251 7.75822 15.6327 7.68902C15.7402 7.61983 15.8654 7.58303 15.9934 7.58303C16.1213 7.58303 16.2465 7.61983 16.354 7.68902C16.4616 7.75822 16.547 7.8569 16.6 7.97329L18.0934 11.2266L21.3467 12.72C21.4631 12.773 21.5618 12.8584 21.631 12.966C21.7002 13.0735 21.7369 13.1987 21.7369 13.3266C21.7369 13.4545 21.7002 13.5797 21.631 13.6873C21.5618 13.7949 21.4631 13.8803 21.3467 13.9333L18.0934 15.4266Z" fill="#FCF7F7"/>
</svg>
